<?xml version="1.0" encoding="utf-8"?>
<!-- Generator: Adobe Illustrator 19.2.1, SVG Export Plug-In . SVG Version: 6.00 Build 0)  -->
<svg version="1.1" id="Capa_1" xmlns="http://www.w3.org/2000/svg" xmlns:xlink="http://www.w3.org/1999/xlink" x="0px" y="0px"
	 viewBox="0 0 41.7 40.5" style="enable-background:new 0 0 41.7 40.5;" xml:space="preserve">
<style type="text/css">
	.st0{fill:#29D6B4;}
</style>
<title>dl</title>
<path class="st0" d="M31.6,21.2c0.4-0.4,0.4-1.1,0-1.6c0,0,0,0,0,0c-0.4-0.4-1.1-0.4-1.5,0c0,0,0,0,0,0l-8,8V1.1
	C22,0.5,21.5,0,20.9,0c0,0,0,0-0.1,0c-0.6,0-1.1,0.5-1.1,1.1v26.5l-8-8c-0.4-0.4-1.2-0.4-1.6,0s-0.4,1.2,0,1.6l10,10
	c0.4,0.4,1.1,0.4,1.6,0L31.6,21.2z M39.5,28.5c0-0.6,0.5-1.1,1.1-1.1c0.6,0,1.1,0.5,1.1,1.1c0,0,0,0,0,0v10.9c0,0.6-0.5,1.1-1.1,1.1
	c0,0,0,0,0,0H1.1C0.5,40.5,0,40,0,39.4c0,0,0,0,0,0V28.5c0-0.6,0.5-1.1,1.1-1.1c0,0,0,0,0,0c0.6,0,1.1,0.5,1.1,1.1c0,0,0,0,0,0v9.8
	h37.2L39.5,28.5L39.5,28.5z"/>
</svg>
