<?xml version="1.0" encoding="utf-8"?>
<!-- Generator: Adobe Illustrator 19.2.1, SVG Export Plug-In . SVG Version: 6.00 Build 0)  -->
<svg version="1.1" id="Layer_1" xmlns="http://www.w3.org/2000/svg" xmlns:xlink="http://www.w3.org/1999/xlink" x="0px" y="0px"
	 viewBox="0 0 100.5 37.6" style="enable-background:new 0 0 100.5 37.6;" xml:space="preserve">
<style type="text/css">
	.st0{fill:#FFFFFF;stroke:#FFFFFF;stroke-width:0.5;stroke-miterlimit:10;}
	.st1{fill:#FFF3B8;stroke:#C6C6C6;stroke-width:0.5;stroke-miterlimit:10;}
	.st2{fill:none;stroke:#C6C6C6;stroke-width:0.5;stroke-miterlimit:10;}
	.st3{fill:#C1C1C1;stroke:#FFFFFF;stroke-width:0.2;stroke-miterlimit:10;}
	.st4{fill:#C1C1C1;}
</style>
<rect x="0.2" y="0.2" class="st0" width="100" height="37.1"/>
<title>pallet</title>
<path class="st1" d="M8.6,34.5c-0.5,0-0.9-0.1-1.3-0.4c-0.7-0.5-1.1-1.4-0.9-2.3L7.7,23l-6.3-6.2c-0.6-0.6-0.8-1.5-0.6-2.4
	s0.9-1.4,1.8-1.6l8.5-1.4l3.7-8.1c0.4-0.8,1.1-1.3,2-1.4h0c0.8,0,1.6,0.5,2,1.3l4,8l8.6,1.2c0.9,0.1,1.6,0.7,1.9,1.6
	c0.3,0.8,0.1,1.8-0.5,2.4l-6.2,6.3l1.6,8.8c0.1,0.9-0.2,1.8-0.8,2.3c-0.7,0.5-1.6,0.6-2.4,0.2l-7.7-4.1l-7.5,4.3
	C9.4,34.5,9,34.5,8.6,34.5z"/>
<path class="st2" d="M17,6.2c0.8,0.7,1.5,1.6,2,2.7c0.3,0.8,0.5,1.7,0.5,2.6"/>
<path class="st3" d="M53.6,17.1c0,2.6-1.2,4.7-3.5,6.2c-2.1,1.4-4.7,2.1-7.3,2.1h-1.6v11.8H40V23.9c0.2,0.1,1.2,0.2,2.8,0.2
	c2.3,0,4.6-0.6,6.6-1.9c2-1.3,2.9-3,2.9-5.1c0-1.2-0.7-2.3-1.9-2.7c-1.2-0.5-2.5-0.8-3.8-0.9c-0.1,0-0.8,0-2.1,0
	c-1.1,0-2.7,0.1-4.6,0.2v-1.4c2.6-0.1,4.5-0.2,5.8-0.2C51,12.2,53.6,13.9,53.6,17.1z"/>
<path class="st3" d="M68.2,24.1c-1.1,0.4-2.2,0.7-3.4,0.9c-1.2,0.3-2.3,0.4-3.5,0.5c-4.3,0-6.5-1.7-6.5-5c0-2.6,1.2-4.7,3.5-6.2
	c2.1-1.4,4.7-2.1,7.2-2.1l2.7,0V24.1L68.2,24.1z M67,13.6c-0.3-0.1-0.6-0.1-0.9-0.1c-2.3,0-4.6,0.5-6.7,1.5
	c-2.3,1.3-3.4,3.1-3.4,5.5c0,1.3,0.7,2.4,1.9,2.9c1.1,0.6,2.3,0.8,3.5,0.8c2.4,0,4.3-0.3,5.5-1v-3.7c0-0.7,0-1.7,0-3
	C67,15.2,67,14.2,67,13.6L67,13.6z"/>
<path class="st3" d="M73.2,24.9h-1.4c-0.5-0.7-0.7-1.7-0.7-2.6V0.5h1.3v21.9C72.4,23.3,72.7,24.2,73.2,24.9z"/>
<path class="st3" d="M77.6,24.9h-1.4c-0.5-0.7-0.7-1.7-0.7-2.6V0.5h1.3v21.9C76.9,23.3,77.1,24.2,77.6,24.9z"/>
<path class="st3" d="M92.7,16.8c0,0.9-0.1,1.8-0.3,2.6H79.9l0,0.7c-0.1,0.9,0.1,1.8,0.7,2.5c0.5,0.7,1,1.4,1.5,2.1l-1.1,0.7
	c-0.6-0.8-1.1-1.6-1.7-2.4c-0.5-0.8-0.7-1.8-0.7-2.8c0-2.3,1-4.5,2.8-6c1.7-1.5,4-2.4,6.3-2.3C91,11.9,92.7,13.6,92.7,16.8z
	 M91.3,16.8c0-2.4-1.1-3.7-3.3-3.7c-1.7,0-3.4,0.4-4.8,1.2c-1.5,0.8-2.6,2.2-3.1,3.8h11.1C91.3,17.8,91.3,17.3,91.3,16.8L91.3,16.8z
	"/>
<path class="st3" d="M97.3,25.1h-1.3V13.7h-2.5v-1.3h2.5v-12h1.3V25.1z"/>
<rect x="93.2" y="12.6" class="st4" width="7" height="1.2"/>
</svg>
