<svg id="Layer_1" data-name="Layer 1" xmlns="http://www.w3.org/2000/svg" viewBox="0 0 1308.1 801.4"><defs><style>.cls-1,.cls-5{fill:#fff;}.cls-2{fill:#2af292;}.cls-3{fill:none;stroke:#000;stroke-width:3px;}.cls-3,.cls-5{stroke-miterlimit:10;}.cls-4{fill:#f978b3;}.cls-5{stroke:#fff;}.cls-6{fill:#e0e2e2;}.cls-7{fill:#d6d6d6;}.cls-8{fill:#fff648;}</style></defs><title>hover</title><rect class="cls-1" width="1308.1" height="801.4"/><path class="cls-2" d="M335.4,248.7A215.79,215.79,0,0,1,441.8,62a208.11,208.11,0,0,0-61.2-9.1c-117.2,0-212.2,96.4-212.2,215.2s95,215.2,212.2,215.2a209.19,209.19,0,0,0,105.8-28.6C399,428.2,335.4,346,335.4,248.7Z"/><path class="cls-3" d="M318.4,243.7A215.66,215.66,0,0,1,424.8,57a208.11,208.11,0,0,0-61.2-9.1c-117.2,0-212.2,96.4-212.2,215.2s95,215.2,212.2,215.2a209.19,209.19,0,0,0,105.8-28.6C382,423.1,318.4,341,318.4,243.7Z"/><path class="cls-4" d="M377.1,425.8c-2.7-30.1-29.9-53.8-63.2-53.8-23.8,0-44.5,12.1-55.3,30-8.5-33.1-40.7-57.7-79.2-57.7-44.9,0-81.3,33.6-81.3,75a70,70,0,0,0,2.1,17,65.37,65.37,0,0,0-23.9,50.2h0c0,36.2,30.1,65.8,66.8,65.8H351.5c36.8,0,66.8-29.6,66.8-65.8h0C418.2,459.3,401.2,435.8,377.1,425.8Z"/><path class="cls-3" d="M369.1,414.8c-2.7-30.1-29.9-53.8-63.2-53.8-23.8,0-44.5,12.1-55.3,30-8.5-33.1-40.7-57.7-79.2-57.7-44.9,0-81.3,33.6-81.3,75a70,70,0,0,0,2.1,17,65.37,65.37,0,0,0-23.9,50.2h0c0,36.2,30.1,65.8,66.8,65.8H343.5c36.8,0,66.8-29.6,66.8-65.8h0C410.2,448.3,393.2,424.8,369.1,414.8Z"/><rect class="cls-5" x="6.7" y="791.3" width="1288.9" height="2.2"/><path class="cls-1" d="M165.1,341a1.5,1.5,0,1,0-1.5-1.5,1.54,1.54,0,0,0,1.5,1.5h0Z"/><path class="cls-1" d="M164.2,336.5a4.71,4.71,0,0,0-1.6.4,1.58,1.58,0,0,0-.5,2.1,1.56,1.56,0,0,0,1.3.7h2.2l-1.4-1.9v0.1l0.7-.9a3.58,3.58,0,0,1-1.1.4l0.8,2.9a17.42,17.42,0,0,1,2.2-.5l-0.8-2.9-2.3.8a1.54,1.54,0,0,0-1,1.9,1.64,1.64,0,0,0,1.4,1.1,16.55,16.55,0,0,0,3.2-.3l-0.8-2.9a10.63,10.63,0,0,0-3.4,1.2,1.58,1.58,0,0,0-.5,2.1,1.56,1.56,0,0,0,1.3.7,24.36,24.36,0,0,0,2.7-.1l-0.4-3a14.26,14.26,0,0,0-2.7.9,1.58,1.58,0,0,0-.5,2.1,1.56,1.56,0,0,0,1.3.7l3.1-.1-0.8-2.8-2.2,1a1.38,1.38,0,0,0-.58,1.86l0.08,0.14a1.55,1.55,0,0,0,2.1.5l2.2-1c1.4-.6.7-2.8-0.8-2.8l-3.1.1,0.8,2.8a6.64,6.64,0,0,1,2-.6c1.6-.3,1.3-3.1-0.4-3a24.36,24.36,0,0,1-2.7.1l0.8,2.8a11.42,11.42,0,0,1,2.6-.9,1.54,1.54,0,0,0,1-1.9,1.43,1.43,0,0,0-1.75-1H166.6a19.42,19.42,0,0,1-2.4.2l0.4,3,2.3-.8a1.54,1.54,0,0,0,1-1.9,1.43,1.43,0,0,0-1.75-1H166.1a14.19,14.19,0,0,0-2.2.5c-1.9.5-1.1,3.3,0.8,2.9,0.9-.2,2.2-0.6,2.5-1.7a1.65,1.65,0,0,0-1.1-1.9h-2.6l0.8,2.8h0a1.45,1.45,0,0,0-.1-2.9h0Z"/><path class="cls-1" d="M165.9,341.8a1.42,1.42,0,0,1-.6-0.2v2.9c0.6-.2,1.2-0.3,1.8-0.5l-1.2-2.7-0.5.2c-1.4.6-.6,2.8,0.8,2.8h1.4l-0.8-2.8a1.42,1.42,0,0,1-.6.2,1.54,1.54,0,0,0-1,1.9,1.64,1.64,0,0,0,1.4,1.1h0.9l-0.4-3a10.44,10.44,0,0,0-2.5.8,1.57,1.57,0,0,0-.6,1.9,1.51,1.51,0,0,0,1.8.9,28.85,28.85,0,0,1,2.9-.4,1.5,1.5,0,0,0,0-3,6.75,6.75,0,0,0-3.1.5,1.58,1.58,0,0,0-1,1.9,1.54,1.54,0,0,0,1.9,1,5,5,0,0,1,1.2-.2,1.5,1.5,0,0,0,0-3,6.45,6.45,0,0,0-2,.3l0.8,2.9a5.87,5.87,0,0,1,2.3-.4v-3c-1.2.1-2.5,0.3-3.7,0.5l1.2,2.7a6.07,6.07,0,0,1,1.8-.5c1.7-.3,1.3-3.1-0.4-3h-0.9l0.4,3a6.94,6.94,0,0,0,1.3-.5,1.58,1.58,0,0,0,.5-2.1,1.56,1.56,0,0,0-1.3-.7h-1.4l0.8,2.8,0.5-.2a1.57,1.57,0,0,0,.6-1.9,1.51,1.51,0,0,0-1.8-.9,12.09,12.09,0,0,0-1.8.5,1.54,1.54,0,0,0-1,1.9,1.28,1.28,0,0,0,1,1c0.2,0.1.4,0.1,0.6,0.2,1.8,0.3,2.6-2.5.7-2.9h0Z"/><path class="cls-1" d="M165.5,335.8h-1l0.4,3,1-.2c1.7-.3,1.2-2.9-0.4-3h-1.6a1.5,1.5,0,0,0,0,3h0.6l-0.4-3c-0.3.1-.7,0.1-1,0.2-1.9.5-1.1,3.2,0.8,2.9a2.35,2.35,0,0,0,.8-0.2,1.54,1.54,0,0,0,1-1.9,1.64,1.64,0,0,0-1.4-1.1,7.57,7.57,0,0,0-1.5.1l0.8,2.9a4.88,4.88,0,0,0,1.1-.4c1.4-.6.6-2.8-0.8-2.8a8.75,8.75,0,0,0-1.6.2c-1.6.4-1.3,3.1,0.4,3,1.1-.1,2.2-0.2,3.4-0.4a1.5,1.5,0,0,0,1.1-1.5,1.74,1.74,0,0,0-1.1-1.5,2.92,2.92,0,0,0-.9-0.2l0.4,3,0.3-.1c1.7-.4,1.2-2.9-0.4-3h-0.6a1.5,1.5,0,0,0,0,3,2.77,2.77,0,0,0,.9-0.1c1.7-.5,1.2-2.8-0.4-3h-0.3l0.4,3h0.2c1.6-.4,1.3-3.1-0.4-3-1.2.1-2.4,0.2-3.5,0.4l1.2,2.7,0.2-.1a1.58,1.58,0,0,0,.5-2.1,1.6,1.6,0,0,0-.9-0.7h-0.2l-0.4,3a6.15,6.15,0,0,0,1.4-.1c1.7-.4,1.3-2.9-0.4-3a8.75,8.75,0,0,0-1.6.2c-1.7.3-1.3,3,.4,3a23.36,23.36,0,0,0,2.6-.4,11.29,11.29,0,0,1,2.6,0,1.5,1.5,0,0,0,0-3,11.29,11.29,0,0,0-2.6,0,23.35,23.35,0,0,1-2.6.4l0.4,3a2.15,2.15,0,0,1,.8,0l-0.4-3h-0.6c-1.7-.1-2.1,2.7-0.4,3H162l-0.4-2.7-0.2.1a1.57,1.57,0,0,0-.6,1.9,1.61,1.61,0,0,0,1.8.9l2.7-.3-0.4-3h-0.2c-1.7.4-1.2,2.8,0.4,3h0.3l-0.4-3h-0.1v3h0.6l-0.4-3-0.3.1a1.53,1.53,0,0,0,.4,3l0.1,0.1v-2.9l-2.6.3,0.4,3a2.2,2.2,0,0,1,.8-0.1l-0.8-2.8-0.4.1a1.54,1.54,0,0,0-1,1.9,1.58,1.58,0,0,0,1.9,1h0.7l-0.4-3c-0.3.1-.5,0.1-0.8,0.2l0.8,2.9c0.3-.1.7-0.1,1-0.2,1.7-.2,1.3-3.2-0.4-3h-0.6v3h1.6l-0.4-3-1,.2c-1.7.3-1.2,2.9,0.4,3h1a1.45,1.45,0,0,0,0-2.9h0Z"/><path class="cls-6" d="M567.3,145.9a4.07,4.07,0,0,1-1.8-.5,3.7,3.7,0,0,1-1.9-3.4l0.8-15.1-12.2-9.2a3.75,3.75,0,0,1-1.4-3.6,3.53,3.53,0,0,1,2.7-2.8l14.9-4L573.5,93a3.73,3.73,0,0,1,3-2.4h0.4a3.84,3.84,0,0,1,3.1,1.6l8.4,12.7,15.4,0.4a3.63,3.63,0,0,1,3.3,2.1,3.52,3.52,0,0,1-.5,3.8L596.9,123l4.4,14.5a3.64,3.64,0,0,1-1,3.7,3.75,3.75,0,0,1-3.8.7l-14.4-5.4-12.7,8.6A2.78,2.78,0,0,1,567.3,145.9Z"/><path class="cls-3" d="M556.7,143.2a4.07,4.07,0,0,1-1.8-.5,3.7,3.7,0,0,1-1.9-3.4l0.8-15.1L541.6,115a3.75,3.75,0,0,1-1.4-3.6,3.53,3.53,0,0,1,2.7-2.8l14.9-4,5.1-14.2a3.73,3.73,0,0,1,3-2.4h0.4a3.84,3.84,0,0,1,3.1,1.6l8.4,12.7,15.5,0.3a3.63,3.63,0,0,1,3.3,2.1,3.52,3.52,0,0,1-.5,3.8l-9.7,11.8,4.4,14.5a3.64,3.64,0,0,1-1,3.7,3.75,3.75,0,0,1-3.8.7l-14.4-5.4-12.7,8.5A3.28,3.28,0,0,1,556.7,143.2Z"/><path class="cls-6" d="M861.8,51.6a3.11,3.11,0,0,1-1.5-4.1l5.7-11-6.2-11a2.71,2.71,0,0,1,.2-3.1,3.19,3.19,0,0,1,3-1.2l12.6,2.2,8.6-8.8a3,3,0,0,1,3.1-.7l0.3,0.1a3.26,3.26,0,0,1,1.8,2.3l2.1,12.3L903,34.2a3.3,3.3,0,0,1,1.8,2.7,3,3,0,0,1-1.6,2.7L891.9,45l-1.5,12.3a2.78,2.78,0,0,1-2,2.4,3.21,3.21,0,0,1-3.1-.8L876.2,50l-12.5,2A10.62,10.62,0,0,1,861.8,51.6Z"/><path class="cls-3" d="M854.7,45.9a3.11,3.11,0,0,1-1.5-4.1l5.7-11-6.2-11a2.71,2.71,0,0,1,.2-3.1,3.19,3.19,0,0,1,3-1.2l12.6,2.2,8.7-8.8a3,3,0,0,1,3.1-.7l0.3,0.1a3.26,3.26,0,0,1,1.8,2.3l2.1,12.3L896,28.5a3.3,3.3,0,0,1,1.8,2.7,3,3,0,0,1-1.6,2.7l-11.3,5.4-1.6,12.4a2.78,2.78,0,0,1-2,2.4,3.21,3.21,0,0,1-3.1-.8l-9.1-8.9-12.5,2A5.92,5.92,0,0,1,854.7,45.9Z"/><path class="cls-6" d="M907,345.3a2.49,2.49,0,0,1-1.7.3,3.3,3.3,0,0,1-2.9-2L897,330.9l-13.7-2.7a3.51,3.51,0,0,1-2.6-2.4,3.22,3.22,0,0,1,1.1-3.3l10.7-9.2L891,299.5a3.56,3.56,0,0,1,1.5-3.2l0.4-.2a3.31,3.31,0,0,1,3.2.1l12,7.1,12.8-5.8a3.39,3.39,0,0,1,3.5.4,3.22,3.22,0,0,1,1.1,3.3l-3.3,13.5,9.4,10.2a3.08,3.08,0,0,1,.6,3.4,3.4,3.4,0,0,1-2.9,2.1l-14,1.3-7,12.1A2.43,2.43,0,0,1,907,345.3Z"/><path class="cls-3" d="M897.2,347.3a2.49,2.49,0,0,1-1.7.3,3.3,3.3,0,0,1-2.9-2l-5.4-12.7-13.7-2.7a3.51,3.51,0,0,1-2.6-2.4,3.45,3.45,0,0,1,1.1-3.4l10.7-9.2-1.4-13.8a3.56,3.56,0,0,1,1.5-3.2l0.4-.2a3.31,3.31,0,0,1,3.2.1l12,7.1,12.8-5.8a3.39,3.39,0,0,1,3.5.4,3.22,3.22,0,0,1,1.1,3.3l-3.3,13.5,9.4,10.2a3.08,3.08,0,0,1,.6,3.4,3.4,3.4,0,0,1-2.9,2.1l-14,1.3-7,12.1A2.81,2.81,0,0,1,897.2,347.3Z"/><ellipse class="cls-7" cx="742.1" cy="551.1" rx="178.1" ry="42.5" transform="translate(-129.83 244.24) rotate(-17.21)"/><path class="cls-7" d="M730.2,509.7c20.8-6.4,40.9-11.6,59.5-15.5l-11-35.7c-5.4-17.5-24.6-27.2-42.5-21.6L679,454.5c-18,5.6-28.3,24.4-22.9,41.9l11.2,36.2A662.62,662.62,0,0,1,730.2,509.7Z"/><ellipse class="cls-3" cx="725.1" cy="543.09" rx="178.1" ry="42.5" transform="translate(-128.22 238.85) rotate(-17.21)"/><path class="cls-3" d="M713.2,501.7c20.8-6.4,40.9-11.6,59.5-15.5l-11-35.7c-5.4-17.5-24.6-27.2-42.5-21.6L662,446.5c-18,5.6-28.3,24.4-22.9,41.9l11.2,36.2A662.63,662.63,0,0,1,713.2,501.7Z"/><path class="cls-3" d="M611.5,747.5"/><path class="cls-3" d="M749.9,770.7"/><path class="cls-3" d="M751.4,770.7"/><path class="cls-3" d="M557.6,600c-2.5-8.8,12.5-17.9,17.9-21.5,10.6-7.1,22.1-13.1,33.6-18.7,23.5-11.5,47.9-20.8,72.5-29.4,49.1-17.3,100.1-32.1,151.7-39.9,13.4-2,27.1-3.4,40.7-2.9,6.3,0.2,17.6.5,21.4,6.8"/><path class="cls-3" d="M729.9,438a17.84,17.84,0,0,1,10,6.2,14.83,14.83,0,0,1,2.6,11.7"/><path class="cls-8" d="M1180.3,641.2H1171c-1.9-27.3-27.1-48.9-57.8-48.9s-55.9,21.6-57.8,48.9h-5.5c-28.5,0-51.5,21.1-51.5,47.1h0c0,26,23.1,47.1,51.5,47.1h130.4c28.5,0,51.5-21.1,51.5-47.1h0C1231.8,662.3,1208.8,641.2,1180.3,641.2Z"/><path class="cls-3" d="M1170.8,631.7h-9.3c-1.9-27.3-27.1-48.9-57.8-48.9s-55.9,21.6-57.8,48.9h-5.5c-28.5,0-51.5,21.1-51.5,47.1h0c0,26,23.1,47.1,51.5,47.1h130.4c28.5,0,51.5-21.1,51.5-47.1h0C1222.3,652.8,1199.2,631.7,1170.8,631.7Z"/><ellipse class="cls-3" cx="657.5" cy="475.5" rx="8.5" ry="9.5"/><path class="cls-3" d="M641.78,636.55a341.29,341.29,0,0,0,193.49-50.09"/><path class="cls-3" d="M674.65,656.76a340.42,340.42,0,0,0,81-12.45,298.22,298.22,0,0,0,63.78-26.07"/><path class="cls-3" d="M704.51,669.88a158.19,158.19,0,0,0,55.14-5.73A170,170,0,0,0,805,643.48"/></svg>