<svg id="Capa_1" data-name="Capa 1" xmlns="http://www.w3.org/2000/svg" viewBox="0 0 21 21"><defs><style>.cls-1{fill:#fff;}</style></defs><title>pin</title><rect class="cls-1" width="21" height="21"/><path d="M0.21,8.28A0.71,0.71,0,0,0,0,9a0.69,0.69,0,0,0,.62.46L3.76,9.65l3.77,3.85L7.07,18.1a0.71,0.71,0,0,0,.4.72,0.65,0.65,0,0,0,.31.07,0.68,0.68,0,0,0,.49-0.21l3.39-3.47,8.26,5.67a0.65,0.65,0,0,0,.39.12,0.68,0.68,0,0,0,.5-0.21,0.74,0.74,0,0,0,.06-0.92L15,11.75,18.4,8.3a0.73,0.73,0,0,0,.14-0.83,0.7,0.7,0,0,0-.71-0.39l-4.59.56L9.47,3.77,9.29,0.68A0.73,0.73,0,0,0,8.84,0a0.7,0.7,0,0,0-.75.17Zm12.45,5.89L14,12.78l3.31,4.61Zm-10.33-6L8,2.36,8.06,4.12a0.67,0.67,0,0,0,.2.47L12.48,8.9a0.72,0.72,0,0,0,.59.21L16,8.75l-7.31,7.5L9,13.31a0.73,0.73,0,0,0-.2-0.59L4.57,8.43A0.7,0.7,0,0,0,4.1,8.22Z"/></svg>