<?xml version="1.0" encoding="utf-8"?>
<!-- Generator: Adobe Illustrator 19.2.1, SVG Export Plug-In . SVG Version: 6.00 Build 0)  -->
<svg version="1.1" id="Layer_1" xmlns="http://www.w3.org/2000/svg" xmlns:xlink="http://www.w3.org/1999/xlink" x="0px" y="0px"
	 viewBox="0 0 433.6 385.9" style="enable-background:new 0 0 433.6 385.9;" xml:space="preserve">
<style type="text/css">
	.st0{fill:#FFFFFF;}
	.st1{fill:#D6D6D6;}
	.st2{fill:none;stroke:#000000;stroke-width:3;stroke-miterlimit:10;}
</style>
<title>ship</title>
<rect class="st0" width="433.6" height="385.9"/>
<ellipse transform="matrix(0.9552 -0.2959 0.2959 0.9552 -36.7787 75.8316)" class="st1" cx="232.2" cy="159.4" rx="178.1" ry="42.5"/>
<path class="st1" d="M220.3,118c20.8-6.4,40.9-11.6,59.5-15.5l-11-35.7c-5.4-17.5-24.6-27.2-42.5-21.6l-57.2,17.6
	c-18,5.6-28.3,24.4-22.9,41.9l11.2,36.2C177.9,132.2,198.9,124.6,220.3,118z"/>
<ellipse transform="matrix(0.9552 -0.2959 0.2959 0.9552 -35.1734 70.442)" class="st2" cx="215.2" cy="151.4" rx="178.1" ry="42.5"/>
<path class="st2" d="M203.3,110c20.8-6.4,40.9-11.6,59.5-15.5l-11-35.7c-5.4-17.5-24.6-27.2-42.5-21.6l-57.2,17.6
	c-18,5.6-28.3,24.4-22.9,41.9l11.2,36.2C160.9,124.2,181.9,116.6,203.3,110z"/>
<path class="st2" d="M101.6,355.9"/>
<path class="st2" d="M47.7,208.4c-2.5-8.8,12.5-17.9,17.9-21.5c10.6-7.1,22.1-13.1,33.6-18.7c23.5-11.5,47.9-20.8,72.5-29.4
	c49.1-17.3,100.1-32.1,151.7-39.9c13.4-2,27.1-3.4,40.7-2.9c6.3,0.2,17.6,0.5,21.4,6.8"/>
<path class="st2" d="M220,46.3c3.9,0.9,7.5,3.1,10,6.2c2.5,3.4,3.4,7.6,2.6,11.7"/>
<ellipse class="st2" cx="147.6" cy="83.8" rx="8.5" ry="9.5"/>
<path class="st2" d="M131.1,240.3c36.1,1.6,72.2-2.6,106.9-12.3c30.5-8.5,59.6-21.3,86.6-37.8"/>
<path class="st2" d="M163.3,254.8c27.4-0.9,54.6-5.1,81-12.4c22.2-6.2,43.6-14.9,63.8-26.1"/>
<path class="st2" d="M191.7,264.6c14.4-0.2,33.3-1.9,54.8-7.9c18.8-5.2,34.1-12.2,45.7-18.5"/>
</svg>
